<svg width="233" height="66" viewBox="40 10 330 66" fill="none" xmlns="http://www.w3.org/2000/svg">

<path d="M93.2772 3.53614C84.2058 8.80219 81.1096 20.4679 86.3762 29.5402C87.7499 31.9066 89.5459 33.8848 91.7137 35.4209C101.053 42.0343 114.456 46.9596 118.342 48.3109C118.633 48.4117 118.954 48.3808 119.221 48.226C119.487 48.0712 119.673 47.808 119.73 47.5054C120.483 43.4617 122.853 29.3802 121.742 17.9891C121.484 15.3445 120.656 12.8043 119.282 10.4378C114.015 1.36606 102.349 -1.73017 93.2772 3.53614ZM107.79 28.5353C103.077 31.2708 97.0175 29.6624 94.2819 24.9502C91.5462 20.2375 93.1545 14.1777 97.8668 11.4422C102.579 8.70666 108.639 10.315 111.375 15.0277C114.111 19.7397 112.502 25.7995 107.79 28.5353Z" fill="#FE6C5B"/>
<path d="M111.135 20.0715C111.135 24.6694 107.408 28.3968 102.81 28.3968C98.2118 28.3968 94.4844 24.6694 94.4844 20.0715C94.4844 15.4735 98.2118 11.7461 102.81 11.7461C107.408 11.7461 111.135 15.4735 111.135 20.0715Z" fill="#ACACAC"/>
<path d="M72.6157 3.53614C81.6871 8.80219 84.7834 20.4679 79.5168 29.5402C78.143 31.9066 76.3471 33.8848 74.1792 35.4209C64.8402 42.0343 51.4365 46.9596 47.5505 48.3109C47.2596 48.4117 46.9388 48.3808 46.6721 48.226C46.4055 48.0712 46.2195 47.808 46.1628 47.5054C45.4099 43.4617 43.0398 29.3802 44.1509 17.9891C44.4092 15.3445 45.2369 12.8043 46.6107 10.4378C51.8782 1.36606 63.5439 -1.73017 72.6157 3.53614ZM58.1034 28.5353C62.8157 31.2708 68.8755 29.6624 71.611 24.9502C74.3468 20.2375 72.7384 14.1777 68.0262 11.4422C63.3139 8.70666 57.2541 10.315 54.5183 15.0277C51.7824 19.7397 53.3907 25.7995 58.1034 28.5353Z" fill="#FE6C5B"/>
<path d="M54.7539 20.0715C54.7539 24.6694 58.4813 28.3968 63.0793 28.3968C67.6772 28.3968 71.4046 24.6694 71.4046 20.0715C71.4046 15.4735 67.6772 11.7461 63.0793 11.7461C58.4813 11.7461 54.7539 15.4735 54.7539 20.0715Z" fill="#ACACAC"/>

</svg>
