<svg width="180" height="53" className="logo" viewBox="0 0 201 59" fill="none" xmlns="http://www.w3.org/2000/svg">
		<path d="M0.768677 5.97656C8.24514 13.8378 19.4048 35.3327 4.23203 58.4218C14.787 49.9008 28.8714 27.4824 0.768677 5.97656Z" fill="white"></path>
		<path d="M31.6481 12.7461C26.0394 21.3595 18.4676 41.8714 33.0503 55.0118C23.3018 49.8705 9.37352 34.2195 31.6481 12.7461Z" fill="white"></path>
		<path d="M57.4881 40.0024C55.2215 40.0024 53.0215 39.7224 50.8881 39.1624C48.7548 38.6024 47.0215 37.8557 45.6881 36.9224L48.2881 31.0824C49.5415 31.909 50.9948 32.5757 52.6481 33.0824C54.3015 33.589 55.9281 33.8424 57.5281 33.8424C60.5681 33.8424 62.0881 33.0824 62.0881 31.5624C62.0881 30.7624 61.6481 30.1757 60.7681 29.8024C59.9148 29.4024 58.5281 28.989 56.6081 28.5624C54.5015 28.109 52.7415 27.629 51.3281 27.1224C49.9148 26.589 48.7015 25.749 47.6881 24.6024C46.6748 23.4557 46.1681 21.909 46.1681 19.9624C46.1681 18.2557 46.6348 16.7224 47.5681 15.3624C48.5015 13.9757 49.8881 12.8824 51.7281 12.0824C53.5948 11.2824 55.8748 10.8824 58.5681 10.8824C60.4081 10.8824 62.2215 11.0957 64.0081 11.5224C65.7948 11.9224 67.3681 12.5224 68.7281 13.3224L66.2881 19.2024C63.6215 17.7624 61.0348 17.0424 58.5281 17.0424C56.9548 17.0424 55.8081 17.2824 55.0881 17.7624C54.3681 18.2157 54.0081 18.8157 54.0081 19.5624C54.0081 20.309 54.4348 20.869 55.2881 21.2424C56.1415 21.6157 57.5148 22.0024 59.4081 22.4024C61.5415 22.8557 63.3015 23.349 64.6881 23.8824C66.1015 24.389 67.3148 25.2157 68.3281 26.3624C69.3681 27.4824 69.8881 29.0157 69.8881 30.9624C69.8881 32.6424 69.4215 34.1624 68.4881 35.5224C67.5548 36.8824 66.1548 37.9757 64.2881 38.8024C62.4215 39.6024 60.1548 40.0024 57.4881 40.0024ZM96.0266 33.3224V39.4424H73.5466V11.4424H95.5066V17.5624H81.3866V22.2824H93.8266V28.2024H81.3866V33.3224H96.0266ZM119.182 34.0024H107.342L105.142 39.4424H97.0616L109.422 11.4424H117.222L129.622 39.4424H121.382L119.182 34.0024ZM116.862 28.1624L113.262 19.2024L109.662 28.1624H116.862ZM141.707 40.0024C139.44 40.0024 137.24 39.7224 135.107 39.1624C132.974 38.6024 131.24 37.8557 129.907 36.9224L132.507 31.0824C133.76 31.909 135.214 32.5757 136.867 33.0824C138.52 33.589 140.147 33.8424 141.747 33.8424C144.787 33.8424 146.307 33.0824 146.307 31.5624C146.307 30.7624 145.867 30.1757 144.987 29.8024C144.134 29.4024 142.747 28.989 140.827 28.5624C138.72 28.109 136.96 27.629 135.547 27.1224C134.134 26.589 132.92 25.749 131.907 24.6024C130.894 23.4557 130.387 21.909 130.387 19.9624C130.387 18.2557 130.854 16.7224 131.787 15.3624C132.72 13.9757 134.107 12.8824 135.947 12.0824C137.814 11.2824 140.094 10.8824 142.787 10.8824C144.627 10.8824 146.44 11.0957 148.227 11.5224C150.014 11.9224 151.587 12.5224 152.947 13.3224L150.507 19.2024C147.84 17.7624 145.254 17.0424 142.747 17.0424C141.174 17.0424 140.027 17.2824 139.307 17.7624C138.587 18.2157 138.227 18.8157 138.227 19.5624C138.227 20.309 138.654 20.869 139.507 21.2424C140.36 21.6157 141.734 22.0024 143.627 22.4024C145.76 22.8557 147.52 23.349 148.907 23.8824C150.32 24.389 151.534 25.2157 152.547 26.3624C153.587 27.4824 154.107 29.0157 154.107 30.9624C154.107 32.6424 153.64 34.1624 152.707 35.5224C151.774 36.8824 150.374 37.9757 148.507 38.8024C146.64 39.6024 144.374 40.0024 141.707 40.0024ZM157.765 11.4424H165.685V39.4424H157.765V11.4424ZM190.08 34.0024H178.24L176.04 39.4424H167.96L180.32 11.4424H188.12L200.52 39.4424H192.28L190.08 34.0024ZM187.76 28.1624L184.16 19.2024L180.56 28.1624H187.76Z" fill="white"></path>
		<path d="M51.4841 53.4171H46.8041L45.7961 55.6611H44.8721L48.7121 47.2611H49.5881L53.4281 55.6611H52.4921L51.4841 53.4171ZM51.1601 52.6971L49.1441 48.1851L47.1281 52.6971H51.1601ZM61.6063 55.8051C60.7503 55.8051 59.9743 55.6211 59.2783 55.2531C58.5903 54.8771 58.0463 54.3611 57.6463 53.7051C57.2543 53.0411 57.0583 52.2931 57.0583 51.4611C57.0583 50.6291 57.2543 49.8851 57.6463 49.2291C58.0463 48.5651 58.5903 48.0491 59.2783 47.6811C59.9743 47.3051 60.7543 47.1171 61.6183 47.1171C62.3463 47.1171 63.0023 47.2451 63.5863 47.5011C64.1783 47.7571 64.6743 48.1251 65.0743 48.6051L63.8263 49.7571C63.2583 49.1011 62.5543 48.7731 61.7143 48.7731C61.1943 48.7731 60.7303 48.8891 60.3223 49.1211C59.9143 49.3451 59.5943 49.6611 59.3623 50.0691C59.1383 50.4771 59.0263 50.9411 59.0263 51.4611C59.0263 51.9811 59.1383 52.4451 59.3623 52.8531C59.5943 53.2611 59.9143 53.5811 60.3223 53.8131C60.7303 54.0371 61.1943 54.1491 61.7143 54.1491C62.5543 54.1491 63.2583 53.8171 63.8263 53.1531L65.0743 54.3051C64.6743 54.7931 64.1783 55.1651 63.5863 55.4211C62.9943 55.6771 62.3343 55.8051 61.6063 55.8051ZM74.0311 55.6611L74.0191 50.6211L71.5471 54.7731H70.6711L68.2111 50.7291V55.6611H66.3871V47.2611H67.9951L71.1391 52.4811L74.2351 47.2611H75.8311L75.8551 55.6611H74.0311ZM85.4921 55.6611L85.4801 50.6211L83.0081 54.7731H82.1321L79.6721 50.7291V55.6611H77.8481V47.2611H79.4561L82.6001 52.4811L85.6961 47.2611H87.2921L87.3161 55.6611H85.4921ZM89.309 47.2611H91.253V55.6611H89.309V47.2611ZM96.3871 47.2611H98.3311V54.0771H102.543V55.6611H96.3871V47.2611ZM109.774 52.4571C109.774 52.4811 109.762 52.6491 109.738 52.9611H104.854C104.942 53.3611 105.15 53.6771 105.478 53.9091C105.806 54.1411 106.214 54.2571 106.702 54.2571C107.038 54.2571 107.334 54.2091 107.59 54.1131C107.854 54.0091 108.098 53.8491 108.322 53.6331L109.318 54.7131C108.71 55.4091 107.822 55.7571 106.654 55.7571C105.926 55.7571 105.282 55.6171 104.722 55.3371C104.162 55.0491 103.73 54.6531 103.426 54.1491C103.122 53.6451 102.97 53.0731 102.97 52.4331C102.97 51.8011 103.118 51.2331 103.414 50.7291C103.718 50.2171 104.13 49.8211 104.65 49.5411C105.178 49.2531 105.766 49.1091 106.414 49.1091C107.046 49.1091 107.618 49.2451 108.13 49.5171C108.642 49.7891 109.042 50.1811 109.33 50.6931C109.626 51.1971 109.774 51.7851 109.774 52.4571ZM106.426 50.5251C106.002 50.5251 105.646 50.6451 105.358 50.8851C105.07 51.1251 104.894 51.4531 104.83 51.8691H108.01C107.946 51.4611 107.77 51.1371 107.482 50.8971C107.194 50.6491 106.842 50.5251 106.426 50.5251ZM117.312 49.2051L114.588 55.6611H112.656L109.944 49.2051H111.876L113.664 53.5971L115.512 49.2051H117.312ZM124.224 52.4571C124.224 52.4811 124.212 52.6491 124.188 52.9611H119.304C119.392 53.3611 119.6 53.6771 119.928 53.9091C120.256 54.1411 120.664 54.2571 121.152 54.2571C121.488 54.2571 121.784 54.2091 122.04 54.1131C122.304 54.0091 122.548 53.8491 122.772 53.6331L123.768 54.7131C123.16 55.4091 122.272 55.7571 121.104 55.7571C120.376 55.7571 119.732 55.6171 119.172 55.3371C118.612 55.0491 118.18 54.6531 117.876 54.1491C117.572 53.6451 117.42 53.0731 117.42 52.4331C117.42 51.8011 117.568 51.2331 117.864 50.7291C118.168 50.2171 118.58 49.8211 119.1 49.5411C119.628 49.2531 120.216 49.1091 120.864 49.1091C121.496 49.1091 122.068 49.2451 122.58 49.5171C123.092 49.7891 123.492 50.1811 123.78 50.6931C124.076 51.1971 124.224 51.7851 124.224 52.4571ZM120.876 50.5251C120.452 50.5251 120.096 50.6451 119.808 50.8851C119.52 51.1251 119.344 51.4531 119.28 51.8691H122.46C122.396 51.4611 122.22 51.1371 121.932 50.8971C121.644 50.6491 121.292 50.5251 120.876 50.5251ZM125.47 46.7571H127.342V55.6611H125.47V46.7571ZM134.962 50.4171C136.146 50.4171 137.018 50.6531 137.578 51.1251C138.146 51.5971 138.43 52.2291 138.43 53.0211C138.43 53.5331 138.302 54.0011 138.046 54.4251C137.79 54.8411 137.398 55.1771 136.87 55.4331C136.35 55.6811 135.706 55.8051 134.938 55.8051C134.346 55.8051 133.762 55.7291 133.186 55.5771C132.618 55.4171 132.134 55.1931 131.734 54.9051L132.502 53.4171C132.822 53.6571 133.19 53.8451 133.606 53.9811C134.022 54.1091 134.45 54.1731 134.89 54.1731C135.378 54.1731 135.762 54.0771 136.042 53.8851C136.322 53.6931 136.462 53.4251 136.462 53.0811C136.462 52.7211 136.314 52.4491 136.018 52.2651C135.73 52.0811 135.226 51.9891 134.506 51.9891H132.358L132.79 47.2611H137.914V48.8211H134.41L134.278 50.4171H134.962ZM146.907 55.7331C146.075 55.7331 145.323 55.5491 144.651 55.1811C143.987 54.8131 143.463 54.3051 143.079 53.6571C142.703 53.0011 142.515 52.2691 142.515 51.4611C142.515 50.6531 142.703 49.9251 143.079 49.2771C143.463 48.6211 143.991 48.1091 144.663 47.7411C145.335 47.3731 146.087 47.1891 146.919 47.1891C147.543 47.1891 148.119 47.2931 148.647 47.5011C149.175 47.7091 149.623 48.0131 149.991 48.4131L149.427 48.9771C148.771 48.3131 147.943 47.9811 146.943 47.9811C146.279 47.9811 145.675 48.1331 145.131 48.4371C144.587 48.7411 144.159 49.1571 143.847 49.6851C143.543 50.2131 143.391 50.8051 143.391 51.4611C143.391 52.1171 143.543 52.7091 143.847 53.2371C144.159 53.7651 144.587 54.1811 145.131 54.4851C145.675 54.7891 146.279 54.9411 146.943 54.9411C147.951 54.9411 148.779 54.6051 149.427 53.9331L149.991 54.4971C149.623 54.8971 149.171 55.2051 148.635 55.4211C148.107 55.6291 147.531 55.7331 146.907 55.7331ZM154.003 55.7211C153.395 55.7211 152.847 55.5851 152.359 55.3131C151.871 55.0331 151.487 54.6491 151.207 54.1611C150.927 53.6731 150.787 53.1211 150.787 52.5051C150.787 51.8891 150.927 51.3371 151.207 50.8491C151.487 50.3611 151.871 49.9811 152.359 49.7091C152.847 49.4371 153.395 49.3011 154.003 49.3011C154.611 49.3011 155.159 49.4371 155.647 49.7091C156.135 49.9811 156.515 50.3611 156.787 50.8491C157.067 51.3371 157.207 51.8891 157.207 52.5051C157.207 53.1211 157.067 53.6731 156.787 54.1611C156.515 54.6491 156.135 55.0331 155.647 55.3131C155.159 55.5851 154.611 55.7211 154.003 55.7211ZM154.003 54.9651C154.451 54.9651 154.851 54.8651 155.203 54.6651C155.563 54.4571 155.843 54.1651 156.043 53.7891C156.243 53.4131 156.343 52.9851 156.343 52.5051C156.343 52.0251 156.243 51.5971 156.043 51.2211C155.843 50.8451 155.563 50.5571 155.203 50.3571C154.851 50.1491 154.451 50.0451 154.003 50.0451C153.555 50.0451 153.151 50.1491 152.791 50.3571C152.439 50.5571 152.159 50.8451 151.951 51.2211C151.751 51.5971 151.651 52.0251 151.651 52.5051C151.651 52.9851 151.751 53.4131 151.951 53.7891C152.159 54.1651 152.439 54.4571 152.791 54.6651C153.151 54.8651 153.555 54.9651 154.003 54.9651ZM166.818 49.3011C167.61 49.3011 168.23 49.5291 168.678 49.9851C169.134 50.4411 169.362 51.1131 169.362 52.0011V55.6611H168.51V52.0851C168.51 51.4291 168.35 50.9291 168.03 50.5851C167.718 50.2411 167.274 50.0691 166.698 50.0691C166.042 50.0691 165.526 50.2731 165.15 50.6811C164.774 51.0811 164.586 51.6371 164.586 52.3491V55.6611H163.734V52.0851C163.734 51.4291 163.574 50.9291 163.254 50.5851C162.942 50.2411 162.494 50.0691 161.91 50.0691C161.262 50.0691 160.746 50.2731 160.362 50.6811C159.986 51.0811 159.798 51.6371 159.798 52.3491V55.6611H158.946V49.3491H159.762V50.5011C159.986 50.1171 160.298 49.8211 160.698 49.6131C161.098 49.4051 161.558 49.3011 162.078 49.3011C162.606 49.3011 163.062 49.4131 163.446 49.6371C163.838 49.8611 164.13 50.1931 164.322 50.6331C164.554 50.2171 164.886 49.8931 165.318 49.6611C165.758 49.4211 166.258 49.3011 166.818 49.3011ZM174.925 49.3011C175.517 49.3011 176.053 49.4371 176.533 49.7091C177.013 49.9731 177.389 50.3491 177.661 50.8371C177.933 51.3251 178.069 51.8811 178.069 52.5051C178.069 53.1371 177.933 53.6971 177.661 54.1851C177.389 54.6731 177.013 55.0531 176.533 55.3251C176.061 55.5891 175.525 55.7211 174.925 55.7211C174.413 55.7211 173.949 55.6171 173.533 55.4091C173.125 55.1931 172.789 54.8811 172.525 54.4731V57.9891H171.673V49.3491H172.489V50.5971C172.745 50.1811 173.081 49.8611 173.497 49.6371C173.921 49.4131 174.397 49.3011 174.925 49.3011ZM174.865 54.9651C175.305 54.9651 175.705 54.8651 176.065 54.6651C176.425 54.4571 176.705 54.1651 176.905 53.7891C177.113 53.4131 177.217 52.9851 177.217 52.5051C177.217 52.0251 177.113 51.6011 176.905 51.2331C176.705 50.8571 176.425 50.5651 176.065 50.3571C175.705 50.1491 175.305 50.0451 174.865 50.0451C174.417 50.0451 174.013 50.1491 173.653 50.3571C173.301 50.5651 173.021 50.8571 172.813 51.2331C172.613 51.6011 172.513 52.0251 172.513 52.5051C172.513 52.9851 172.613 53.4131 172.813 53.7891C173.021 54.1651 173.301 54.4571 173.653 54.6651C174.013 54.8651 174.417 54.9651 174.865 54.9651ZM181.979 49.3011C182.803 49.3011 183.435 49.5091 183.875 49.9251C184.315 50.3331 184.535 50.9411 184.535 51.7491V55.6611H183.719V54.6771C183.527 55.0051 183.243 55.2611 182.867 55.4451C182.499 55.6291 182.059 55.7211 181.547 55.7211C180.843 55.7211 180.283 55.5531 179.867 55.2171C179.451 54.8811 179.243 54.4371 179.243 53.8851C179.243 53.3491 179.435 52.9171 179.819 52.5891C180.211 52.2611 180.831 52.0971 181.679 52.0971H183.683V51.7131C183.683 51.1691 183.531 50.7571 183.227 50.4771C182.923 50.1891 182.479 50.0451 181.895 50.0451C181.495 50.0451 181.111 50.1131 180.743 50.2491C180.375 50.3771 180.059 50.5571 179.795 50.7891L179.411 50.1531C179.731 49.8811 180.115 49.6731 180.563 49.5291C181.011 49.3771 181.483 49.3011 181.979 49.3011ZM181.679 55.0491C182.159 55.0491 182.571 54.9411 182.915 54.7251C183.259 54.5011 183.515 54.1811 183.683 53.7651V52.7331H181.703C180.623 52.7331 180.083 53.1091 180.083 53.8611C180.083 54.2291 180.223 54.5211 180.503 54.7371C180.783 54.9451 181.175 55.0491 181.679 55.0491ZM190.065 49.3011C190.857 49.3011 191.485 49.5331 191.949 49.9971C192.421 50.4531 192.657 51.1211 192.657 52.0011V55.6611H191.805V52.0851C191.805 51.4291 191.641 50.9291 191.313 50.5851C190.985 50.2411 190.517 50.0691 189.909 50.0691C189.229 50.0691 188.689 50.2731 188.289 50.6811C187.897 51.0811 187.701 51.6371 187.701 52.3491V55.6611H186.849V49.3491H187.665V50.5131C187.897 50.1291 188.217 49.8331 188.625 49.6251C189.041 49.4091 189.521 49.3011 190.065 49.3011ZM200.157 49.3491L197.001 56.4171C196.745 57.0091 196.449 57.4291 196.113 57.6771C195.777 57.9251 195.373 58.0491 194.901 58.0491C194.597 58.0491 194.313 58.0011 194.049 57.9051C193.785 57.8091 193.557 57.6651 193.365 57.4731L193.761 56.8371C194.081 57.1571 194.465 57.3171 194.913 57.3171C195.201 57.3171 195.445 57.2371 195.645 57.0771C195.853 56.9171 196.045 56.6451 196.221 56.2611L196.497 55.6491L193.677 49.3491H194.565L196.941 54.7131L199.317 49.3491H200.157Z" fill="white"></path>
		</svg>